# Blender 3.6.23
# www.blender.org
o Cube
v 0.000000 0.359375 -0.078125
v -0.609375 0.359375 0.062500
v -0.328125 0.312500 -0.453125
v 0.178561 -0.575461 0.296875
v 0.547863 -0.640579 0.390625
v -0.328125 0.640625 -0.218750
v 0.276238 -0.021507 0.296875
v 0.000000 -0.531250 -0.078125
v -0.609375 -0.531250 0.062500
v -0.328125 -0.531250 -0.546875
v 0.317049 -0.599880 -0.265625
v 0.640189 -0.656859 0.015625
v 0.645541 -0.086625 0.390625
v 0.414726 -0.045926 -0.265625
v 0.830192 -0.119184 0.015625
v 0.026059 0.538214 0.264155
v -0.444526 0.407510 0.486209
v 0.075594 0.266936 0.872431
v 0.555891 0.214772 0.109375
v -0.113175 0.712984 0.606297
v 0.070573 -0.858215 0.674479
v -0.612712 -0.682212 0.190915
v 0.160273 -0.541467 -0.195778
v -0.187500 -0.671391 -0.607586
v -0.093750 -0.562202 -0.200086
v -0.187500 0.053053 -0.801700
v 0.328125 -0.659259 -0.562308
v 0.281250 -0.537938 -0.109530
v -0.187500 0.195388 -0.451610
v 0.328125 0.110463 -0.768555
v 0.281250 0.186507 -0.303645
v 0.046875 0.385380 -0.648104
v 0.328125 -0.531250 -0.312500
v 0.468750 -0.531250 -0.312500
v 0.328125 -0.156250 -0.265625
v 0.375000 -0.531250 -0.546875
v 0.515625 -0.531250 -0.453125
v 0.515625 -0.156250 -0.218750
v 0.375000 -0.156250 -0.546875
v 0.562500 -0.156250 -0.406250
v 0.421875 -0.015625 -0.359375
v -0.387067 -0.531250 -0.418649
v -0.616650 -0.531250 -0.501921
v -0.421810 -0.156250 -0.370177
v -0.539880 -0.531250 -0.110643
v -0.745199 -0.531250 -0.331345
v -0.637664 -0.156250 -0.510858
v -0.539880 -0.156250 -0.157518
v -0.731470 -0.156250 -0.341879
v -0.583504 -0.015625 -0.350761
v -0.234375 -0.531250 0.531250
v -0.375000 -0.531250 0.437500
v -0.281250 -0.343750 0.531250
v -0.328125 -0.531250 0.671875
v -0.421875 -0.531250 0.531250
v -0.375000 -0.343750 0.437500
v -0.328125 -0.343750 0.625000
v -0.421875 -0.343750 0.531250
v -0.328125 -0.296875 0.531250
v -0.468750 -0.109375 0.484375
v -0.750000 -0.109375 0.484375
v -0.609375 -0.109375 0.203125
v -0.609375 -0.015625 0.390625
v -0.468750 -0.531250 0.484375
v -0.750000 -0.531250 0.484375
v -0.609375 -0.531250 0.156250
v 0.430903 -0.587896 0.587694
v 0.441382 -0.539889 0.315436
v 0.382431 -0.208347 0.594701
v 0.098632 -0.582427 0.556680
v 0.059041 -0.538347 0.306689
v 0.379180 -0.174790 0.404394
v 0.098632 -0.213125 0.621798
v 0.185937 -0.175355 0.407595
v 0.267611 -0.058347 0.553837
vn 0.6463 0.4435 -0.6210
vn -0.8127 0.3386 -0.4741
vn -0.1736 -0.9848 -0.0000
vn -0.0697 0.6694 0.7396
vn 0.7880 0.0332 -0.6148
vn 0.5815 -0.1532 -0.7990
vn -0.9554 0.1685 -0.2425
vn -0.0000 -1.0000 -0.0000
vn -0.8938 0.0242 -0.4479
vn 0.2249 -0.0000 0.9744
vn 0.1799 0.5998 0.7797
vn -0.2389 0.0421 0.9701
vn 0.9058 -0.2387 0.3501
vn -0.4531 0.7056 -0.5448
vn -0.7079 0.6763 -0.2037
vn 0.7723 0.5408 0.3333
vn 0.5190 0.5978 -0.6110
vn 0.8832 0.4508 0.1291
vn 0.9980 0.0450 0.0450
vn -0.0000 -0.9397 -0.3420
vn -0.4713 0.2965 -0.8306
vn -0.6029 -0.1282 0.7875
vn -0.5302 0.2576 0.8078
vn -0.0000 -0.9659 0.2588
vn -0.7295 0.6336 -0.2576
vn 0.9950 0.0258 0.0961
vn 0.0905 -0.2578 -0.9620
vn -0.9912 -0.0235 0.1304
vn -0.2669 0.2620 0.9274
vn 0.0127 0.4121 -0.9110
vn -0.1665 0.8006 0.5755
vn 0.6873 0.7247 -0.0492
vn -0.1886 0.6287 0.7544
vn 0.5812 0.0145 -0.8136
vn -0.9838 0.0112 -0.1789
vn -0.1393 -0.1741 0.9748
vn 0.9477 -0.1692 0.2708
vn -0.8650 0.4806 -0.1442
vn 0.7249 0.6645 0.1812
vn 0.4534 0.6549 -0.6046
vn 0.4382 0.5967 -0.6723
vn -0.7127 0.0665 0.6983
vn 0.8864 0.0401 0.4612
vn 0.4477 0.0802 -0.8906
vn -0.8364 -0.0223 -0.5477
vn 0.6376 0.6842 0.3540
vn -0.6533 0.6645 -0.3627
vn -0.5480 0.6126 0.5695
vn 0.5774 0.5774 -0.5774
vn -0.7785 0.0778 0.6228
vn 0.8452 0.1690 0.5071
vn 0.6228 0.0778 -0.7785
vn -0.8944 -0.0000 -0.4472
vn 0.6667 0.6667 0.3333
vn -0.4364 0.8729 -0.2182
vn -0.4082 0.8165 0.4082
vn 0.6667 0.6667 -0.3333
vn -0.6667 0.6667 -0.3333
vn 0.9077 0.0233 -0.4189
vn -0.9077 0.0233 -0.4189
vn -0.0000 -0.0000 1.0000
vn -0.0000 0.7071 0.7071
vn -0.0000 -0.9848 -0.1736
vn 0.7775 0.6214 0.0963
vn -0.9803 0.1853 -0.0681
vn -0.0064 -0.0963 0.9953
vn 0.9891 0.1418 0.0405
vn 0.0098 0.2515 -0.9678
vn 0.0846 0.3217 0.9431
vn -0.0126 0.7842 -0.6204
vn -0.7013 0.6939 -0.1635
vt 0.322461 0.672150
vt 0.306691 0.661677
vt 0.326723 0.655903
vt 0.351190 0.657836
vt 0.335240 0.670380
vt 0.664272 0.561116
vt 0.664272 0.545010
vt 0.680378 0.545010
vt 0.680378 0.569169
vt 0.214198 0.640309
vt 0.230198 0.642030
vt 0.220085 0.656389
vt 0.299801 0.625225
vt 0.323204 0.620717
vt 0.248702 0.620468
vt 0.266633 0.618998
vt 0.268546 0.642337
vt 0.247519 0.644179
vt 0.290690 0.617026
vt 0.292603 0.640365
vt 0.656459 0.545010
vt 0.656459 0.572974
vt 0.635861 0.560970
vt 0.351160 0.620738
vt 0.377239 0.657815
vt 0.377209 0.620717
vt 0.365251 0.672465
vt 0.216703 0.617026
vt 0.232702 0.618747
vt 0.026692 0.674683
vt 0.047598 0.666803
vt 0.040357 0.684824
vt 0.283837 0.655074
vt 0.236058 0.658586
vt 0.258076 0.659261
vt 0.088024 0.684824
vt 0.075182 0.665727
vt 0.101566 0.674521
vt 0.078313 0.618256
vt 0.115944 0.627481
vt 0.573457 0.570970
vt 0.543052 0.591142
vt 0.543052 0.552373
vt 0.007600 0.629352
vt 0.042715 0.619520
vt 0.059254 0.682338
vt 0.545905 0.506928
vt 0.561819 0.509404
vt 0.567301 0.526556
vt 0.545728 0.526556
vt 0.184698 0.656256
vt 0.200288 0.658407
vt 0.193780 0.671915
vt 0.143520 0.625024
vt 0.163138 0.625024
vt 0.163138 0.658208
vt 0.143520 0.656256
vt 0.184698 0.625024
vt 0.202695 0.625024
vt 0.127424 0.625024
vt 0.123142 0.658218
vt 0.174381 0.671130
vt 0.131097 0.670928
vt 0.153749 0.672534
vt 0.637954 0.514206
vt 0.638720 0.508077
vt 0.644466 0.506928
vt 0.644466 0.516887
vt 0.575068 0.640177
vt 0.582602 0.643006
vt 0.575081 0.648224
vt 0.591725 0.627004
vt 0.598724 0.626270
vt 0.600352 0.641799
vt 0.590647 0.642823
vt 0.608621 0.625232
vt 0.612159 0.640565
vt 0.579992 0.625232
vt 0.585553 0.627065
vt 0.608385 0.647672
vt 0.587512 0.650732
vt 0.594954 0.650159
vt 0.610610 0.511364
vt 0.608971 0.520111
vt 0.598860 0.521255
vt 0.598859 0.506928
vt 0.462915 0.659779
vt 0.473628 0.659277
vt 0.468448 0.666821
vt 0.480810 0.642868
vt 0.493341 0.642249
vt 0.492687 0.657965
vt 0.481631 0.658471
vt 0.507486 0.644420
vt 0.502696 0.659481
vt 0.461801 0.644014
vt 0.471962 0.643729
vt 0.497566 0.666821
vt 0.479121 0.666596
vt 0.486147 0.665677
vt 0.658778 0.509637
vt 0.659320 0.513970
vt 0.652278 0.513970
vt 0.652278 0.506928
vt 0.674864 0.639324
vt 0.679614 0.642126
vt 0.674838 0.642081
vt 0.663801 0.631624
vt 0.670700 0.630270
vt 0.670624 0.638309
vt 0.665198 0.639297
vt 0.677572 0.631754
vt 0.683577 0.635409
vt 0.659512 0.632405
vt 0.660909 0.640078
vt 0.673408 0.641665
vt 0.667133 0.506928
vt 0.670787 0.509320
vt 0.667133 0.511712
vt 0.668516 0.642126
vt 0.391476 0.647732
vt 0.384605 0.643535
vt 0.397537 0.641445
vt 0.410626 0.641976
vt 0.404306 0.646964
vt 0.381801 0.626185
vt 0.396480 0.623793
vt 0.630141 0.506928
vt 0.624282 0.520600
vt 0.618423 0.506928
vt 0.411339 0.624415
vt 0.422334 0.642451
vt 0.423046 0.624890
vt 0.416256 0.647732
vt 0.591047 0.518222
vt 0.575114 0.518456
vt 0.575114 0.506928
vt 0.588998 0.507715
vt 0.534564 0.652670
vt 0.542507 0.653744
vt 0.536363 0.660482
vt 0.509901 0.639768
vt 0.520534 0.639072
vt 0.522873 0.654448
vt 0.513263 0.655910
vt 0.534189 0.636802
vt 0.545572 0.638247
vt 0.560432 0.643795
vt 0.550008 0.656571
vt 0.531140 0.659918
vt 0.544168 0.662710
vt 0.517883 0.663014
s 0
f 6/1/1 1/2/1 3/3/1
f 3/3/2 2/4/2 6/5/2
f 12/6/3 5/7/3 4/8/3 11/9/3
f 7/10/4 13/11/4 19/12/4
f 3/3/5 1/2/5 8/13/5 10/14/5
f 12/15/6 11/16/6 14/17/6 15/18/6
f 11/16/7 4/19/7 7/20/7 14/17/7
f 9/21/8 10/22/8 8/23/8
f 2/4/9 3/3/9 10/14/9 9/24/9
f 1/25/10 2/4/10 9/24/10 8/26/10
f 6/27/11 2/4/11 1/25/11
f 4/28/12 5/29/12 13/11/12 7/10/12
f 5/29/13 12/15/13 15/18/13 13/11/13
f 16/30/14 17/31/14 20/32/14
f 14/17/15 7/20/15 19/33/15
f 13/11/16 15/18/16 19/34/16
f 15/18/17 14/17/17 19/35/17
f 20/36/18 18/37/18 16/38/18
f 16/38/19 18/37/19 21/39/19 23/40/19
f 22/41/20 23/42/20 21/43/20
f 17/31/21 16/30/21 23/44/21 22/45/21
f 18/37/22 17/31/22 22/45/22 21/39/22
f 20/46/23 17/31/23 18/37/23
f 28/47/24 25/48/24 24/49/24 27/50/24
f 26/51/25 29/52/25 32/53/25
f 28/54/26 27/55/26 30/56/26 31/57/26
f 27/55/27 24/58/27 26/51/27 30/56/27
f 24/58/28 25/59/28 29/52/28 26/51/28
f 25/60/29 28/54/29 31/57/29 29/61/29
f 30/56/30 26/51/30 32/62/30
f 29/61/31 31/57/31 32/63/31
f 31/57/32 30/56/32 32/64/32
f 37/65/8 34/66/8 33/67/8 36/68/8
f 35/69/33 38/70/33 41/71/33
f 37/72/34 36/73/34 39/74/34 40/75/34
f 36/73/35 33/76/35 35/77/35 39/74/35
f 33/78/36 34/79/36 38/70/36 35/69/36
f 34/79/37 37/72/37 40/75/37 38/70/37
f 39/74/38 35/77/38 41/80/38
f 38/70/39 40/75/39 41/81/39
f 40/75/40 39/74/40 41/82/40
f 46/83/8 43/84/8 42/85/8 45/86/8
f 44/87/41 47/88/41 50/89/41
f 46/90/42 45/91/42 48/92/42 49/93/42
f 45/91/43 42/94/43 44/95/43 48/92/43
f 42/96/44 43/97/44 47/88/44 44/87/44
f 43/97/45 46/90/45 49/93/45 47/88/45
f 48/92/46 44/95/46 50/98/46
f 47/88/47 49/93/47 50/99/47
f 49/93/48 48/92/48 50/100/48
f 55/101/8 52/102/8 51/103/8 54/104/8
f 53/105/49 56/106/49 59/107/49
f 55/108/50 54/109/50 57/110/50 58/111/50
f 54/109/51 51/112/51 53/105/51 57/110/51
f 51/112/52 52/113/52 56/106/52 53/105/52
f 52/114/53 55/108/53 58/111/53 56/115/53
f 57/110/54 53/105/54 59/116/54
f 56/117/55 58/118/55 59/119/55
f 58/111/56 57/110/56 59/120/56
f 63/121/57 60/122/57 62/123/57
f 62/123/58 61/124/58 63/125/58
f 62/123/59 60/122/59 64/126/59 66/127/59
f 65/128/8 66/129/8 64/130/8
f 61/124/60 62/123/60 66/127/60 65/131/60
f 60/132/61 61/124/61 65/131/61 64/133/61
f 63/134/62 61/124/62 60/132/62
f 71/135/63 68/136/63 67/137/63 70/138/63
f 69/139/64 72/140/64 75/141/64
f 71/142/65 70/143/65 73/144/65 74/145/65
f 70/143/66 67/146/66 69/139/66 73/144/66
f 67/146/67 68/147/67 72/140/67 69/139/67
f 68/147/68 71/148/68 74/149/68 72/140/68
f 73/144/69 69/139/69 75/150/69
f 72/140/70 74/149/70 75/151/70
f 74/145/71 73/144/71 75/152/71
